<svg width="40" height="40" viewBox="0 0 40 40" fill="none" xmlns="http://www.w3.org/2000/svg">
<circle cx="20" cy="20" r="20" fill="white"/>
<path d="M20.2434 8C26.7806 8.00003 32.0002 13.0481 32.0002 19.1787C32.0002 25.3094 26.7807 30.3574 20.2434 30.3574C13.7061 30.3574 8.48657 25.3094 8.48657 19.1787C8.48661 13.0481 13.7061 8 20.2434 8Z" stroke="#C9B9AC" stroke-width="2"/>
<path d="M17.4044 18.7365C16.8399 18.0588 17.3875 17.5483 17.7602 17.3549C18.1159 17.0911 18.2757 16.6158 18.3265 16.3118C18.3773 16.0079 17.143 13.7835 17.0414 13.4864C16.9601 13.2488 16.1701 13.2032 15.7853 13.2101C15.2456 13.2493 14.0994 13.9244 13.8322 16.3118C13.4982 19.2961 20.2796 25.534 23.5468 25.2853C26.8141 25.0366 26.7052 23.1645 26.8794 22.757C27.0188 22.4309 26.6906 22.1928 26.5091 22.1145C25.846 21.7829 24.4123 21.0659 23.9824 20.8504C23.4452 20.5809 23.6194 20.7398 22.7409 21.631C22.1426 22.6036 21.4606 22.3586 21.1944 22.1145C18.2757 20.4842 18.0143 19.4688 17.4044 18.7365Z" fill="#C9B9AC" stroke="#C9B9AC"/>
<path d="M8 30.5833L10.3016 24L11.9062 25.7546L11.2745 27.4885L13.0098 26.9152L15.0935 28.4142L8 30.5833Z" fill="#C9B9AC"/>
</svg>
